<?xml version="1.0" encoding="UTF-8" standalone="no"?>
<!DOCTYPE svg PUBLIC "-//W3C//DTD SVG 1.1//EN" "http://www.w3.org/Graphics/SVG/1.1/DTD/svg11.dtd">
<!-- Created with Vectornator (http://vectornator.io/) -->
<svg height="100%" stroke-miterlimit="10" style="fill-rule:nonzero;clip-rule:evenodd;stroke-linecap:round;stroke-linejoin:round;" version="1.1" viewBox="0 0 283.5 283.5" width="26px" height="26px" xml:space="preserve" xmlns="http://www.w3.org/2000/svg" xmlns:vectornator="http://vectornator.io" xmlns:xlink="http://www.w3.org/1999/xlink">
<defs/>
<g id="レイヤー-1" vectornator:layerName="レイヤー 1">
<path d="M269.904 173.004L196.317 243.875" fill="none" opacity="1" stroke="#00ffff" stroke-linecap="round" stroke-linejoin="round" stroke-width="5.71688" vectornator:layerName="曲線 8"/>
<path d="M13.5965 111.308L104.957 40.9598L269.904 40.9598L228.488 79.9728L196.324 111.308L13.5965 111.308Z" fill="#00ffff" fill-rule="nonzero" opacity="1" stroke="#00ffff" stroke-linecap="round" stroke-linejoin="round" stroke-width="5.71688" vectornator:layerName="曲線 1"/>
<path d="M13.5965 112.232L13.5965 243.863" fill="none" opacity="1" stroke="#00ffff" stroke-linecap="butt" stroke-linejoin="round" stroke-width="5.71688" vectornator:layerName="曲線 2"/>
<path d="M196.317 111.308L196.317 243.875" fill="none" opacity="1" stroke="#00ffff" stroke-linecap="butt" stroke-linejoin="round" stroke-width="5.71688" vectornator:layerName="曲線 3"/>
<path d="M269.904 40.9598L269.904 173.004" fill="none" opacity="1" stroke="#00ffff" stroke-linecap="butt" stroke-linejoin="round" stroke-width="5.71688" vectornator:layerName="曲線 4"/>
<path d="M13.5965 243.875C15.5233 243.848 196.317 243.875 196.317 243.875" fill="none" opacity="1" stroke="#00ffff" stroke-linecap="round" stroke-linejoin="round" stroke-width="5.71688" vectornator:layerName="曲線 7"/>
<path d="M73.3678 208.423L33.8499 152.594C30.292 147.57 12.0873 160.468 15.6452 165.493L61.9162 230.826C65.5893 236.014 72.8551 237.09 77.8698 233.185C77.8698 233.185 207.996 125.491 204.213 120.634C201.848 117.598 73.3678 208.423 73.3678 208.423Z" fill="#19ff00" fill-rule="nonzero" opacity="1" stroke="none" vectornator:layerName="曲線 9"/>
</g>
</svg>
